# Alias OBJ Model File
# Exported from SketchUp, (c) 2000-2012 Trimble Navigation Limited
# File units = inches

mtllib Grass.mtl

g Mesh1 Grass_Blade1 G_1__Full_Grass_Square1_1 G_1__Full_Grass_Square1 Model

usemtl Color_G11
v 0.434296 4.73214 -0.0201711
vt 0.936171 4.50526
vn -0.341535 0.454519 -0.822658
v 0.662767 4.26757 -0.371701
vt 0.590374 3.9837
vn -0.308136 0.382414 -0.871098
v 0.635418 4.25276 -0.368525
vt 0.616851 3.96709
vn -0.302917 0.354792 -0.884513
f 1/1/1 2/2/2 3/3/3

vt 0.545708 4.20278
v 0.825535 3.7056 -0.609429
vt 0.321772 3.6123
vn -0.281874 0.302897 -0.910385
vt 0.572824 4.18723
f 2/4/2 4/5/4 3/6/3

v 0.860821 3.55425 -0.670547
vt 0.27519 3.4591
vn -0.283515 0.261192 -0.922712
v 0.802521 3.53558 -0.657957
vt 0.334548 3.43954
vn -0.285129 0.270663 -0.91948
vt 0.582109 4.19105
vt 0.327466 3.6177
f 5/7/5 6/8/6 3/9/3 4/10/4 

vt 0.330192 3.48487
vt 0.270731 3.50412
v 0.859106 3.22465 -0.755964
vt 0.247869 3.16439
vn -0.275981 0.22271 -0.935005
f 6/11/6 5/12/5 7/13/7

v 0.918143 3.23976 -0.769832
vt 0.187636 3.17993
vn -0.273499 0.203014 -0.940204
vt 0.248163 3.16435
vt 0.271189 3.50407
f 8/14/8 7/15/7 5/16/5

vt 0.245812 3.19772
vt 0.185232 3.21309
v 0.923535 2.74374 -0.867559
vt 0.1533 2.70851
vn -0.267548 0.163278 -0.94961
f 7/17/7 8/18/8 9/19/9

v 0.983153 2.75518 -0.882431
vt 0.0920122 2.72015
vn -0.265935 0.143155 -0.953302
vt 0.15342 2.70851
vt 0.185533 3.21308
f 10/20/10 9/21/9 8/22/8

vt 0.152697 2.73066
vt 0.0912686 2.74218
v 0.967317 2.24715 -0.943391
vt 0.0904256 2.23026
vn -0.261743 0.102639 -0.959664
f 9/23/9 10/24/10 11/25/11

v 1.02735 2.25482 -0.958985
vt 0.0284086 2.23797
vn -0.261014 0.0822182 -0.961827
vt 0.0904284 2.23024
vt 0.0913932 2.74216
f 12/26/12 11/27/11 10/28/10

vt 0.0904155 2.24298
vt 0.0283902 2.25067
v 1 1.5 -1
vt 0.0441942 1.49441
vn -0.258601 0.0411946 -0.965105
f 11/29/11 12/30/12 13/31/13

v 1.06029 1.50385 -1.01603
vt -0.0182713 1.49826
vn -0.259374 0.0206565 -0.965556
vt 0.0441094 1.4944
vt 0.028395 2.25066
f 14/32/14 13/33/13 12/34/12

vt 0.0442783 1.5
vt -0.0181029 1.50385
v 1 0 -1
vt 0.0442783 2.16839e-019
vn -0.258811 7.8723e-005 -0.965928
f 13/35/13 14/36/14 15/37/15

v 1.06037 0.75 -1.01618
vt -0.0183893 0.749993
vn -0.260644 0.000157446 -0.965435
vt 0.0441106 -6.97132e-006
vt -0.0182702 1.50384
f 16/38/16 15/39/15 14/40/14

vt 0.0625 0
vn 0.5 0 -0.866025
v 0.945873 0.75 -1.03125
vt 0.125 0.75
vt 0.0625 1.5
f 15/41/17 17/42/17 13/43/17

v 0.945873 1.5 -1.03125
vt 0.125 1.5
vn 0.499524 0.0436194 -0.865201
f 18/44/18 13/43/18 17/42/17

vt 0.125 1.49429
v 0.91319 2.24715 -0.974641
vt 0.125 2.24429
vn 0.498097 0.0871557 -0.86273
vt 0.0625 1.49429
f 18/45/18 19/46/19 13/47/18

vt 0.0625 2.24429
vn 0.495722 0.130526 -0.858616
f 11/48/20 13/47/19 19/46/20

vt 0.125 2.22436
v 0.869409 2.74374 -0.898809
vt 0.125 2.72861
vn 0.492404 0.173648 -0.852869
vt 0.0625 2.22436
f 19/49/20 20/50/21 11/51/20

vt 0.0625 2.72861
vn 0.488148 0.21644 -0.845497
f 9/52/22 11/51/21 20/50/22

vt 0.125 2.68983
v 0.804979 3.22465 -0.787214
vt 0.125 3.1877
vn 0.482963 0.258819 -0.836516
vt 0.0625 2.68983
f 20/53/22 21/54/23 9/55/22

vt 0.0625 3.1877
vn 0.476858 0.300706 -0.825943
f 7/56/24 9/55/23 21/54/24

vt 0.125 3.12655
v 0.748395 3.53558 -0.689207
vt 0.125 3.45744
vn 0.469846 0.34202 -0.813798
vt 0.0625 3.12655
f 21/57/24 22/58/25 7/59/24

vt 0.0625 3.45744
vn 0.461792 0.38257 -0.800243
f 6/60/26 7/59/25 22/58/26

vt 0.125172 3.37149
v 0.713108 3.68692 -0.628089
vt 0.125203 3.53848
vn 0.450175 0.422651 -0.78658
vt 0.0628182 4.16274
vn 0.431067 0.499829 -0.751234
vt 0.0626724 3.3715
f 22/61/26 23/62/27 3/63/28 6/64/26 

v 0.608103 4.25336 -0.383715
vt 0.0989481 4.16258
vn 0.418829 0.537434 -0.731947
vt 0.0676953 4.16192
vt 0.128315 3.53749
f 24/65/29 3/66/28 23/67/27

vt 0.0625 4.35229
vn 0.383022 0.642788 -0.663414
vt 0.0625 3.7265
vt 0.09375 3.72729
f 1/68/30 3/69/28 24/70/29

g Mesh2 Grass_Blade_1_1 G_1__Full_Grass_Square1_1 G_1__Full_Grass_Square1 Model

v 0.442128 5.3123e-016 -0.198933
vn -0.866025 0 -0.5
v 0.410878 0.75 -0.144806
v 0.442128 1.5 -0.198933
f 25/41/31 26/42/31 27/43/31

v 0.410878 1.5 -0.144806
vn -0.865201 0.0436194 -0.499524
f 28/44/32 27/43/32 26/42/31

v 0.467487 2.24715 -0.112123
vn -0.86273 0.0871557 -0.498097
f 28/45/32 29/46/33 27/47/32

v 0.498737 2.24715 -0.166249
vn -0.858616 0.130526 -0.495722
f 30/48/34 27/47/33 29/46/34

vn -0.959664 0.102639 0.261743
v 0.483142 2.25482 -0.226284
vn -0.961827 0.0822182 0.261014
vn -0.965105 0.0411946 0.258601
f 30/29/35 31/30/36 27/31/37

v 0.559696 2.75518 -0.182086
vn -0.953302 0.143155 0.265935
f 31/26/36 30/27/35 32/28/38

v 0.574568 2.74374 -0.122468
vn -0.94961 0.163278 0.267548
f 33/23/39 32/24/38 30/25/35

v 0.672296 3.23976 -0.117076
vn -0.940204 0.203014 0.273499
f 32/20/38 33/21/39 34/22/40

v 0.686164 3.22465 -0.0580386
vn -0.935005 0.22271 0.275981
f 35/17/41 34/18/40 33/19/39

v 0.771581 3.55425 -0.0597541
vn -0.922692 0.261219 0.283556
f 34/14/40 35/15/41 36/16/42

v 0.784171 3.53558 -0.00145408
vn -0.919449 0.270703 0.285191
f 37/11/43 36/12/42 35/13/41

vt 0.33458 3.43945
v 0.822247 3.62993 0.0205291
vt 0.367151 3.53831
vn -0.908605 0.298843 0.29177
v 0.832698 3.7056 -0.0244678
vt 0.327505 3.61761
vt 0.275222 3.45902
f 37/71/43 38/72/44 39/73/44 36/74/42 

v 0.752921 3.53558 0.0526725
vt 0.125 3.37153
vn -0.800145 0.382565 -0.461964
v 0.790997 3.62993 0.0746557
vt 0.125 3.47562
vn -0.784979 0.422387 -0.453208
vt 0.0625 3.47562
vt 0.0625 3.37153
f 40/75/45 41/76/46 38/77/46 37/78/45 

vn -0.813798 0.34202 -0.469846
f 37/60/45 35/59/47 40/58/45

v 0.654914 3.22465 -0.00391201
vn -0.825943 0.300706 -0.476858
f 42/57/48 40/58/47 35/59/48

vn -0.836516 0.258819 -0.482963
f 35/56/48 33/55/49 42/54/48

v 0.543318 2.74374 -0.0683416
vn -0.845497 0.21644 -0.488148
f 43/53/50 42/54/49 33/55/50

vn -0.852869 0.173648 -0.492404
f 33/52/50 30/51/51 43/50/50

f 29/49/34 43/50/51 30/51/34

v 0.426097 1.50385 -0.259219
vn -0.965556 0.0206565 0.259374
f 44/32/52 27/33/37 31/34/36

vn -0.965928 7.8723e-005 0.258811
f 27/35/37 44/36/52 25/37/53

v 0.425951 0.75 -0.259303
vn -0.965435 0.000157446 0.260644
f 45/38/54 25/39/53 44/40/52

g Mesh3 Grass_Blade_2_1 G_1__Full_Grass_Square1_1 G_1__Full_Grass_Square1 Model

v 1.15173 4.73214 -0.511192
vn -0.306675 0.514661 0.800671
v 0.94239 4.26757 -0.533289
vn -0.351384 0.447671 0.822265
v 0.950603 4.25276 -0.511192
vn -0.36295 0.419076 0.832252
f 46/1/55 47/2/56 48/3/57

v 0.798759 3.7056 -0.555386
vn -0.390992 0.365819 0.844572
f 47/4/56 49/5/58 48/6/57

v 0.763473 3.55425 -0.555386
vn -0.399765 0.317693 0.859802
v 0.783499 3.53558 -0.511192
vn -0.396533 0.328352 0.85729
f 50/7/59 51/8/60 48/9/57 49/10/58 

v 0.726915 3.22465 -0.511192
vn -0.412943 0.273813 0.868622
f 51/11/60 50/12/59 52/13/61

v 0.706151 3.23976 -0.555386
vn -0.418315 0.2507 0.873019
f 53/14/62 52/15/61 50/16/59

v 0.662485 2.74374 -0.511192
vn -0.428924 0.203405 0.880142
f 52/17/61 53/18/62 54/19/63

v 0.641141 2.75518 -0.555386
vn -0.432814 0.178914 0.883551
f 55/20/64 54/21/63 53/22/62

v 0.618704 2.24715 -0.511192
vn -0.440307 0.129081 0.88852
f 54/23/63 55/24/64 56/25/65

v 0.596943 2.25482 -0.555386
vn -0.442539 0.103592 0.890746
f 57/26/66 56/27/65 55/28/64

v 0.586021 1.5 -0.511192
vn -0.446605 0.052081 0.893214
f 56/29/65 57/30/66 58/31/67

v 0.564008 1.50385 -0.555386
vn -0.446609 0.0261153 0.894348
f 59/32/68 58/33/67 57/34/66

v 0.586021 0 -0.511192
vn -0.44722 9.95782e-005 0.894424
f 58/35/67 59/36/68 60/37/69

v 0.563924 0.75 -0.555386
vn -0.445863 0.00019893 0.895101
f 61/38/70 60/39/69 59/40/68

vn -1 0 1.49009e-008
v 0.586021 0.75 -0.448692
f 60/41/71 62/42/71 58/43/71

v 0.586021 1.5 -0.448692
vn -0.996209 0.0869909 1.48445e-008
f 63/44/72 58/43/72 62/42/71

v 0.618704 2.24715 -0.448692
vn -0.985034 0.172359 1.46779e-008
f 63/45/72 64/46/73 58/47/72

vn -0.96704 0.254626 1.44098e-008
f 56/48/74 58/47/73 64/46/74

v 0.662485 2.74374 -0.448692
vn -0.943075 0.332579 1.40527e-008
f 64/49/74 65/50/75 56/51/74

vn -0.914169 0.405333 1.3622e-008
f 54/52/76 56/51/75 65/50/76

v 0.726915 3.22465 -0.448692
vn -0.881412 0.472347 1.31339e-008
f 65/53/76 66/54/77 54/55/76

vn -0.845863 0.533399 1.26042e-008
f 52/56/78 54/55/77 66/54/78

v 0.783499 3.53558 -0.448692
vn -0.808479 0.588525 1.20471e-008
f 66/57/78 67/58/79 52/59/78

vn -0.770184 0.637821 0.000330066
f 51/60/80 52/59/79 67/58/80

v 0.818786 3.68692 -0.448692
vn -0.731271 0.682064 0.00553051
vn -0.654819 0.755778 0.0034811
f 67/61/80 68/62/81 48/63/82 51/64/80 

v 0.950854 4.25336 -0.479942
vn -0.617253 0.78675 0.00476803
f 69/65/83 48/66/82 68/67/81

vn -0.511889 0.859052 7.62763e-009
f 46/68/84 48/69/82 69/70/83

g Mesh4 Grass_Blade2 G_1__Full_Grass_Square1_1 G_1__Full_Grass_Square1 Model

v 0.181669 4.73214 -1.28425
vn 0.707107 0.454519 0.541675
v 0.159572 4.26757 -0.865579
vn 0.702403 0.382414 0.600325
v 0.181669 4.25276 -0.882005
vn 0.70459 0.354792 0.614553
f 70/1/85 71/2/86 72/3/87

v 0.137475 3.7056 -0.578316
vn 0.699303 0.302897 0.647479
f 71/4/86 73/5/88 72/6/87

v 0.137475 3.55425 -0.507744
vn 0.706887 0.261192 0.657335
v 0.181669 3.53558 -0.547797
vn 0.706669 0.270663 0.653729
f 74/7/89 75/8/90 72/9/87 73/10/88 

v 0.181669 3.22465 -0.434628
vn 0.706509 0.22271 0.671748
f 75/11/90 74/12/89 76/13/91

v 0.137475 3.23976 -0.393099
vn 0.706959 0.203014 0.677491
f 77/14/92 76/15/91 74/16/89

v 0.181669 2.74374 -0.305769
vn 0.706508 0.163278 0.688612
f 76/17/91 77/18/92 78/19/93

v 0.137475 2.75518 -0.263081
vn 0.706958 0.143155 0.692616
f 79/20/94 78/21/93 77/22/92

v 0.181669 2.24715 -0.218207
vn 0.706508 0.102639 0.700222
f 78/23/93 79/24/94 80/25/95

v 0.137475 2.25482 -0.174684
vn 0.706958 0.0822182 0.70246
f 81/26/96 80/27/95 79/28/94

v 0.181669 1.5 -0.15284
vn 0.706508 0.0411946 0.706505
f 80/29/95 81/30/96 82/31/97

v 0.137475 1.50385 -0.108814
vn 0.707403 0.0206565 0.706509
f 83/32/98 82/33/97 81/34/96

v 0.181669 0 -0.15284
vn 0.707101 7.8723e-005 0.707113
f 82/35/97 83/36/98 84/37/99

v 0.137475 0.75 -0.108646
vn 0.708441 0.000157446 0.70577
f 85/38/100 84/39/99 83/40/98

vn 0 0 1
v 0.244169 0.75 -0.15284
f 84/41/101 86/42/101 82/43/101

v 0.244169 1.5 -0.15284
vn -5.5564e-017 0.0436194 0.999048
f 87/44/102 82/43/102 86/42/101

v 0.244169 2.24715 -0.218207
vn -1.11022e-016 0.0871557 0.996195
f 87/45/102 88/46/103 82/47/102

vn 1.94474e-016 0.130526 0.991445
vn 2.22045e-016 0.0871557 0.996195
f 80/48/104 82/47/105 88/46/104

v 0.244169 2.74374 -0.305769
vn 1.66533e-016 0.173648 0.984808
f 88/49/104 89/50/106 80/51/104

vn 5.5564e-017 0.21644 0.976296
vn -5.55112e-017 0.173648 0.984808
f 78/52/107 80/51/108 89/50/107

v 0.244169 3.22465 -0.434628
vn 1.66533e-016 0.258819 0.965926
f 89/53/107 90/54/109 78/55/107

vn -1.3891e-016 0.300706 0.953717
vn -2.22045e-016 0.258819 0.965926
f 76/56/110 78/55/111 90/54/110

v 0.244169 3.53558 -0.547797
vn -5.55112e-017 0.34202 0.939693
f 90/57/110 91/58/112 76/59/110

vn 0.000197969 0.38257 0.923926
f 75/60/113 76/59/112 91/58/113

v 0.244169 3.68692 -0.61837
vn 0.00342705 0.422651 0.906286
vn 0.00230219 0.499829 0.866121
f 91/61/113 92/62/114 72/63/115 75/64/113 

v 0.212919 4.25336 -0.882506
vn 0.00325707 0.537434 0.843299
f 93/65/116 72/66/115 92/67/114

vn 5.55112e-017 0.642788 0.766044
f 70/68/117 72/69/115 93/70/116

g Mesh5 Grass_Blade_2_2 G_1__Full_Grass_Square1_1 G_1__Full_Grass_Square1 Model

v 0.979829 4.73214 -0.434296
vn -0.822658 0.454519 0.341535
v 0.628299 4.26757 -0.662767
vn -0.871098 0.382414 0.308136
v 0.631475 4.25276 -0.635418
vn -0.884513 0.354792 0.302917
f 94/1/118 95/2/119 96/3/120

v 0.390571 3.7056 -0.825535
vn -0.910385 0.302897 0.281874
f 95/4/119 97/5/121 96/6/120

v 0.329453 3.55425 -0.860821
vn -0.922712 0.261192 0.283515
v 0.342043 3.53558 -0.802521
vn -0.91948 0.270663 0.285129
f 98/7/122 99/8/123 96/9/120 97/10/121 

v 0.244036 3.22465 -0.859106
f 99/11/123 98/12/122 100/13/41

v 0.230168 3.23976 -0.918143
f 101/14/40 100/15/41 98/16/122

v 0.132441 2.74374 -0.923535
f 100/17/41 101/18/40 102/19/39

v 0.117569 2.75518 -0.983153
f 103/20/38 102/21/39 101/22/40

v 0.0566093 2.24715 -0.967317
f 102/23/39 103/24/38 104/25/35

v 0.0410146 2.25482 -1.02735
f 105/26/36 104/27/35 103/28/38

v 1.15186e-015 1.5 -1
f 104/29/35 105/30/36 106/31/37

v -0.0160305 1.50385 -1.06029
f 107/32/52 106/33/37 105/34/36

v 1.15186e-015 0 -1
f 106/35/37 107/36/52 108/37/53

v -0.0161762 0.75 -1.06037
f 109/38/54 108/39/53 107/40/52

v -0.03125 0.75 -0.945873
f 108/41/31 110/42/31 106/43/31

v -0.03125 1.5 -0.945873
f 111/44/32 106/43/32 110/42/31

v 0.0253593 2.24715 -0.91319
f 111/45/32 112/46/33 106/47/32

f 104/48/34 106/47/33 112/46/34

v 0.101191 2.74374 -0.869409
f 112/49/34 113/50/51 104/51/34

f 102/52/50 104/51/51 113/50/50

v 0.212786 3.22465 -0.804979
f 113/53/50 114/54/49 102/55/50

f 100/56/48 102/55/49 114/54/48

v 0.310793 3.53558 -0.748395
f 114/57/48 115/58/47 100/59/48

vn -0.800243 0.38257 -0.461792
f 99/60/124 100/59/47 115/58/124

v 0.371911 3.68692 -0.713108
vn -0.78658 0.422651 -0.450175
vn -0.751234 0.499829 -0.431067
f 115/61/124 116/62/125 96/63/126 99/64/124 

v 0.616285 4.25336 -0.608103
vn -0.731947 0.537434 -0.418829
f 117/65/127 96/66/126 116/67/125

vn -0.663414 0.642788 -0.383022
f 94/68/128 96/69/126 117/70/127

g Mesh6 Grass_Blade_3_1 G_1__Full_Grass_Square1_1 G_1__Full_Grass_Square1 Model

v 0.5 0 -0.875545
v 0.5625 0.93 -0.875545
v 0.5 1.86 -0.875545
f 118/41/101 119/42/101 120/43/101

v 0.5625 1.86 -0.875545
vn -1.00092e-016 0.0487165 0.998813
f 121/44/129 120/43/129 119/42/101

v 0.5625 2.78646 -0.948102
vn -1.99852e-016 0.0972716 0.995258
f 121/45/129 122/46/130 120/47/129

v 0.5 2.78646 -0.948102
vn 1.24881e-016 0.145506 0.989357
vn 4.9963e-017 0.0972716 0.995258
f 123/48/131 120/47/132 122/46/131

vn 0.667747 0.12029 0.734605
v 0.455806 2.79598 -0.899792
vn 0.668561 0.0964133 0.737381
vn 0.668554 0.0483372 0.742091
f 123/29/133 124/30/134 120/31/135

v 0.455806 3.41642 -0.997913
vn 0.66731 0.167557 0.725688
f 124/26/134 123/27/133 125/28/136

v 0.5 3.40224 -1.0453
vn 0.666283 0.190937 0.72084
f 126/23/137 125/24/136 123/25/133

v 0.455806 4.01731 -1.14223
vn 0.665437 0.236952 0.707847
f 125/20/136 126/21/137 127/22/138

v 0.5 3.99856 -1.18833
vn 0.664217 0.259629 0.701006
f 128/17/139 127/18/138 126/19/137

v 0.455806 4.40727 -1.26949
vn 0.662969 0.303776 0.684245
f 127/14/138 128/15/139 129/16/140

v 0.5 4.38412 -1.31395
vn 0.662307 0.314583 0.67999
f 130/11/141 129/12/140 128/13/139

v 0.5 4.50111 -1.36275
vn 0.661172 0.346554 0.665396
v 0.455806 4.59494 -1.34782
f 130/71/141 131/72/142 132/73/142 129/74/140 

v 0.5625 4.38412 -1.31395
vn -4.91731e-017 0.419821 0.907607
v 0.5625 4.50111 -1.36275
vn -4.89393e-017 0.461753 0.887009
f 133/75/143 134/76/144 131/77/144 130/78/143 

vn -4.93002e-017 0.376653 0.926354
f 130/60/143 128/59/145 133/58/143

v 0.5625 3.99856 -1.18833
vn -1.23764e-016 0.33222 0.943202
f 135/57/146 133/58/145 128/59/146

vn -1.98399e-016 0.28676 0.958003
f 128/56/146 126/55/147 135/54/146

v 0.5625 3.40224 -1.0453
vn 7.46542e-017 0.240396 0.970675
vn 9.91997e-017 0.28676 0.958003
f 136/53/148 135/54/149 126/55/148

vn 4.98241e-017 0.193264 0.981147
f 126/52/148 123/51/150 136/50/148

vn 1.99297e-016 0.193264 0.981147
f 122/49/131 136/50/151 123/51/131

v 0.455806 1.86478 -0.826676
vn 0.669605 0.0242454 0.742322
f 137/32/152 120/33/135 124/34/134

vn 0.669328 9.2402e-005 0.742967
f 120/35/135 137/36/152 118/37/153

v 0.455806 0.93 -0.826489
vn 0.67073 0.00018484 0.741702
f 138/38/154 118/39/153 137/40/152

g Mesh7 Grass_Blade_1_2 G_1__Full_Grass_Square1_1 G_1__Full_Grass_Square1 Model

v 0.387346 0 -0.534507
vn 0.965926 0 0.258819
v 0.403523 0.75 -0.594878
v 0.387346 1.5 -0.534507
f 139/41/155 140/42/155 141/43/155

v 0.403523 1.5 -0.594878
vn 0.965006 0.0436194 0.258573
f 142/44/156 141/43/156 140/42/155

v 0.340383 2.24715 -0.611796
vn 0.96225 0.0871557 0.257834
f 142/45/156 143/46/157 141/47/156

v 0.324207 2.24715 -0.551426
vn 0.957662 0.130526 0.256605
f 144/48/158 141/47/157 143/46/158

vn 0.859221 0.102639 -0.501204
v 0.354808 2.25482 -0.497473
vn 0.861499 0.0822182 -0.501059
vn 0.865289 0.0411946 -0.499577
f 144/29/159 145/30/160 141/31/161

v 0.269423 2.75518 -0.520352
vn 0.85199 0.143155 -0.503606
f 145/26/160 144/27/159 146/28/162

v 0.239628 2.74374 -0.574088
vn 0.848006 0.163278 -0.504209
f 147/23/163 146/24/162 144/25/159

v 0.143835 3.23976 -0.554003
vn 0.837381 0.203014 -0.507522
f 146/20/162 147/21/163 148/22/164

v 0.115159 3.22465 -0.60744
vn 0.831717 0.22271 -0.508574
f 149/17/165 148/18/164 147/19/163

v 0.033097 3.55425 -0.583675
vn 0.817862 0.261219 -0.512705
f 148/14/164 149/15/165 150/16/166

v 0.00584658 3.53558 -0.63673
vn 0.814307 0.270703 -0.513444
f 151/11/167 150/12/166 149/13/165

v -0.0366217 3.62993 -0.648109
vn 0.80213 0.298843 -0.516992
v -0.035071 3.7056 -0.601941
f 151/71/167 152/72/168 153/73/168 150/74/166 

v 0.0220228 3.53558 -0.6971
vn 0.892446 0.382565 0.23913
v -0.0204455 3.62993 -0.70848
vn 0.87553 0.422387 0.234598
f 154/75/169 155/76/170 152/77/170 151/78/169 

vn 0.907673 0.34202 0.24321
f 151/60/169 149/59/171 154/58/169

v 0.131336 3.22465 -0.66781
vn 0.92122 0.300706 0.24684
f 156/57/172 154/58/171 149/59/172

vn 0.933013 0.258819 0.25
f 149/56/172 147/55/173 156/54/172

v 0.255804 2.74374 -0.634459
vn 0.94303 0.21644 0.252684
f 157/53/174 156/54/173 147/55/174

vn 0.951251 0.173648 0.254887
f 147/52/174 144/51/175 157/50/174

f 143/49/158 157/50/175 144/51/158

v 0.418434 1.50385 -0.480424
vn 0.865524 0.0206565 -0.500441
f 158/32/176 141/33/161 145/34/160

vn 0.86603 7.8723e-005 -0.499993
f 141/35/161 158/36/176 139/37/177

v 0.418596 0.75 -0.480381
vn 0.865079 0.000157446 -0.501635
f 159/38/178 139/39/177 158/40/176

g Mesh8 Grass_Blade_2_3 G_1__Full_Grass_Square1_1 G_1__Full_Grass_Square1 Model

v 0.616194 4.73214 0.0928572
vn -0.823209 0.454519 -0.340205
v 0.529178 4.26757 -0.317266
vn -0.833844 0.382414 -0.398074
v 0.512085 4.25276 -0.295681
vn -0.83964 0.354792 -0.411251
f 160/1/179 161/2/180 162/3/181

v 0.476173 3.7056 -0.600459
vn -0.843054 0.302897 -0.444424
f 161/4/180 163/5/182 162/6/181

v 0.457908 3.55425 -0.668627
vn -0.852932 0.261192 -0.451981
v 0.425586 3.53558 -0.6185
vn -0.851787 0.270663 -0.448554
f 164/7/183 165/8/184 162/9/181 163/10/182 

v 0.396296 3.22465 -0.727813
vn -0.856296 0.22271 -0.466001
f 165/11/184 164/12/183 166/13/185

v 0.428236 3.23976 -0.779365
vn -0.858217 0.203014 -0.471432
f 167/14/186 166/15/185 164/16/183

v 0.362945 2.74374 -0.852281
vn -0.860661 0.163278 -0.48229
f 166/17/185 167/18/186 168/19/187

v 0.394584 2.75518 -0.904953
vn -0.862131 0.143155 -0.486042
f 169/20/188 168/21/187 167/22/186

v 0.340282 2.24715 -0.936861
vn -0.863666 0.102639 -0.493505
f 168/23/187 169/24/188 170/25/189

v 0.371705 2.25482 -0.990339
vn -0.864679 0.0822182 -0.49555
f 171/26/190 170/27/189 169/28/188

v 0.323364 1.5 -1
vn -0.865291 0.0411946 -0.499574
f 170/29/189 171/30/190 172/31/191

v 0.354657 1.50385 -1.05396
vn -0.866156 0.0206565 -0.499346
f 173/32/192 172/33/191 171/34/190

v 0.323364 0 -1
vn -0.866021 7.8723e-005 -0.500007
f 172/35/191 173/36/192 174/37/193

v 0.354614 0.75 -1.05413
vn -0.866969 0.000157446 -0.498363
f 175/38/194 174/39/193 173/40/192

vn -0.258819 0 -0.965926
v 0.262993 0.75 -0.983824
f 174/41/195 176/42/195 172/43/195

v 0.262993 1.5 -0.983824
vn -0.258573 0.0436194 -0.965006
f 177/44/196 172/43/196 176/42/195

v 0.279911 2.24715 -0.920684
vn -0.257834 0.0871557 -0.96225
f 177/45/196 178/46/197 172/47/196

vn -0.256605 0.130526 -0.957662
f 170/48/198 172/47/197 178/46/198

v 0.302574 2.74374 -0.836105
vn -0.254887 0.173648 -0.951251
f 178/49/198 179/50/199 170/51/198

vn -0.252684 0.21644 -0.94303
f 168/52/200 170/51/199 179/50/200

v 0.335925 3.22465 -0.711637
vn -0.25 0.258819 -0.933013
f 179/53/200 180/54/201 168/55/200

vn -0.24684 0.300706 -0.92122
f 166/56/202 168/55/201 180/54/202

v 0.365216 3.53558 -0.602324
vn -0.24321 0.34202 -0.907673
f 180/57/202 181/58/203 166/59/202

vn -0.239321 0.38257 -0.892393
f 165/60/204 166/59/203 181/58/204

v 0.383481 3.68692 -0.534156
vn -0.237874 0.422651 -0.874518
vn -0.226392 0.499829 -0.836013
f 181/61/204 182/62/205 162/63/206 165/64/204 

v 0.48203 4.25336 -0.287108
vn -0.221408 0.537434 -0.813722
f 183/65/207 162/66/206 182/67/205

vn -0.198267 0.642788 -0.739942
f 160/68/208 162/69/206 183/70/207

g Mesh9 Grass_Blade_1_3 G_1__Full_Grass_Square1_1 G_1__Full_Grass_Square1 Model

v 0.816144 0 -0.155124
vn -0.965926 0 0.258819
v 0.83232 0.75 -0.0947538
v 0.816144 1.5 -0.155124
f 184/41/209 185/42/209 186/43/209

v 0.83232 1.5 -0.0947538
vn -0.965006 0.0436194 0.258573
f 187/44/210 186/43/210 185/42/209

v 0.89546 2.24715 -0.111672
vn -0.96225 0.0871557 0.257834
f 187/45/210 188/46/211 186/47/210

v 0.879284 2.24715 -0.172042
vn -0.957662 0.130526 0.256605
f 189/48/212 186/47/211 188/46/212

vn -0.493505 0.102639 0.863666
v 0.825806 2.25482 -0.203466
vn -0.49555 0.0822182 0.864679
vn -0.499574 0.0411946 0.865291
f 189/29/213 190/30/214 186/31/215

v 0.911191 2.75518 -0.226345
vn -0.486042 0.143155 0.862131
f 190/26/214 189/27/213 191/28/216

v 0.963863 2.74374 -0.194705
vn -0.48229 0.163278 0.860661
f 192/23/217 191/24/216 189/25/213

v 1.03678 3.23976 -0.259996
vn -0.471432 0.203014 0.858217
f 191/20/216 192/21/217 193/22/218

v 1.08833 3.22465 -0.228056
vn -0.466001 0.22271 0.856296
f 194/17/219 193/18/218 192/19/217

v 1.14752 3.55425 -0.289668
vn -0.451937 0.261219 0.852946
f 193/14/218 194/15/219 195/16/220

v 1.19764 3.53558 -0.257347
vn -0.448488 0.270703 0.851809
f 196/11/221 195/12/220 194/13/219

v 1.24011 3.62993 -0.268726
vn -0.436169 0.298843 0.848793
v 1.21568 3.7056 -0.307934
f 196/71/221 197/72/222 198/73/222 195/74/220 

v 1.21382 3.53558 -0.196976
vn -0.892446 0.382565 0.23913
v 1.25629 3.62993 -0.208356
vn -0.87553 0.422387 0.234598
f 199/75/223 200/76/224 197/77/224 196/78/223 

vn -0.907673 0.34202 0.24321
f 196/60/223 194/59/225 199/58/223

v 1.10451 3.22465 -0.167686
vn -0.92122 0.300706 0.24684
f 201/57/226 199/58/225 194/59/226

vn -0.933013 0.258819 0.25
f 194/56/226 192/55/227 201/54/226

v 0.980039 2.74374 -0.134335
vn -0.94303 0.21644 0.252684
f 202/53/228 201/54/227 192/55/228

vn -0.951251 0.173648 0.254887
f 192/52/228 189/51/229 202/50/228

f 188/49/212 202/50/229 189/51/212

v 0.76218 1.50385 -0.186418
vn -0.499346 0.0206565 0.866156
f 203/32/230 186/33/215 190/34/214

vn -0.500007 7.8723e-005 0.866021
f 186/35/215 203/36/230 184/37/231

v 0.762018 0.75 -0.186374
vn -0.498363 0.000157446 0.866969
f 204/38/232 184/39/231 203/40/230

