# 3ds Max Wavefront OBJ Exporter v0.97b - (c)2007 guruware
# File Created: 24.11.2016 16:58:22

mtllib hinhtron.mtl

#
# object Cylinder001
#

v  106.4547 4.7231 -21.1752
v  108.5403 4.7231 0.0000
v  58.4665 -8.0059 -0.0000
v  57.3431 -8.0059 -11.4063
v  100.2782 4.7231 -41.5366
v  54.0160 -8.0059 -22.3742
v  90.2480 4.7231 -60.3018
v  48.6131 -8.0059 -32.4823
v  76.7496 4.7231 -76.7496
v  41.3421 -8.0059 -41.3421
v  60.3018 4.7231 -90.2480
v  32.4823 -8.0059 -48.6132
v  41.5366 4.7231 -100.2782
v  22.3742 -8.0059 -54.0160
v  21.1752 4.7231 -106.4547
v  11.4063 -8.0059 -57.3431
v  0.0000 4.7231 -108.5403
v  0.0000 -8.0059 -58.4665
v  -21.1752 4.7231 -106.4547
v  -11.4062 -8.0059 -57.3431
v  -41.5366 4.7231 -100.2782
v  -22.3742 -8.0059 -54.0160
v  -60.3018 4.7231 -90.2480
v  -32.4823 -8.0059 -48.6132
v  -76.7496 4.7231 -76.7496
v  -41.3421 -8.0059 -41.3421
v  -90.2480 4.7231 -60.3018
v  -48.6132 -8.0059 -32.4823
v  -100.2782 4.7231 -41.5366
v  -54.0160 -8.0059 -22.3742
v  -106.4547 4.7231 -21.1751
v  -57.3431 -8.0059 -11.4062
v  -108.5403 4.7231 0.0000
v  -58.4665 -8.0059 0.0000
v  -106.4547 4.7231 21.1752
v  -57.3431 -8.0059 11.4063
v  -100.2782 4.7231 41.5366
v  -54.0160 -8.0059 22.3742
v  -90.2479 4.7231 60.3018
v  -48.6131 -8.0059 32.4823
v  -76.7495 4.7231 76.7496
v  -41.3421 -8.0059 41.3421
v  -60.3017 4.7231 90.2480
v  -32.4822 -8.0059 48.6132
v  -41.5365 4.7231 100.2782
v  -22.3741 -8.0059 54.0161
v  -21.1751 4.7231 106.4548
v  -11.4062 -8.0059 57.3431
v  0.0001 4.7231 108.5403
v  0.0001 -8.0059 58.4665
v  21.1753 4.7231 106.4547
v  11.4063 -8.0059 57.3431
v  41.5367 4.7231 100.2781
v  22.3742 -8.0059 54.0160
v  60.3019 4.7231 90.2479
v  32.4823 -8.0059 48.6131
v  76.7497 4.7231 76.7495
v  41.3421 -8.0059 41.3420
v  90.2481 4.7231 60.3016
v  48.6132 -8.0059 32.4822
v  100.2782 4.7231 41.5364
v  54.0161 -8.0059 22.3741
v  106.4548 4.7231 21.1750
v  57.3431 -8.0059 11.4062
v  48.9807 -9.0726 -9.7429
v  49.9403 -9.0726 -0.0000
v  0.0000 -9.0726 -0.0000
v  46.1388 -9.0726 -19.1113
v  41.5239 -9.0726 -27.7454
v  35.3131 -9.0726 -35.3131
v  27.7453 -9.0726 -41.5239
v  19.1113 -9.0726 -46.1388
v  9.7429 -9.0726 -48.9807
v  0.0000 -9.0726 -49.9403
v  -9.7429 -9.0726 -48.9807
v  -19.1113 -9.0726 -46.1388
v  -27.7453 -9.0726 -41.5239
v  -35.3131 -9.0726 -35.3131
v  -41.5239 -9.0726 -27.7453
v  -46.1388 -9.0726 -19.1113
v  -48.9807 -9.0726 -9.7429
v  -49.9403 -9.0726 0.0000
v  -48.9807 -9.0726 9.7429
v  -46.1388 -9.0726 19.1114
v  -41.5238 -9.0726 27.7454
v  -35.3131 -9.0726 35.3132
v  -27.7453 -9.0726 41.5239
v  -19.1113 -9.0726 46.1389
v  -9.7428 -9.0726 48.9807
v  0.0000 -9.0726 49.9403
v  9.7429 -9.0726 48.9807
v  19.1114 -9.0726 46.1388
v  27.7454 -9.0726 41.5238
v  35.3132 -9.0726 35.3131
v  41.5239 -9.0726 27.7453
v  46.1389 -9.0726 19.1113
v  48.9807 -9.0726 9.7428
v  53.1946 -8.8059 -10.5811
v  54.2368 -8.8059 -0.0000
v  50.1083 -8.8059 -20.7555
v  45.0962 -8.8059 -30.1323
v  38.3512 -8.8059 -38.3512
v  30.1323 -8.8059 -45.0962
v  20.7555 -8.8059 -50.1083
v  10.5811 -8.8059 -53.1946
v  0.0000 -8.8059 -54.2368
v  -10.5811 -8.8059 -53.1946
v  -20.7555 -8.8059 -50.1083
v  -30.1323 -8.8059 -45.0962
v  -38.3512 -8.8059 -38.3512
v  -45.0962 -8.8059 -30.1323
v  -50.1083 -8.8059 -20.7555
v  -53.1946 -8.8059 -10.5811
v  -54.2368 -8.8059 0.0000
v  -53.1946 -8.8059 10.5811
v  -50.1082 -8.8059 20.7555
v  -45.0962 -8.8059 30.1324
v  -38.3512 -8.8059 38.3512
v  -30.1323 -8.8059 45.0963
v  -20.7555 -8.8059 50.1083
v  -10.5810 -8.8059 53.1947
v  0.0001 -8.8059 54.2368
v  10.5811 -8.8059 53.1946
v  20.7556 -8.8059 50.1082
v  30.1324 -8.8059 45.0962
v  38.3512 -8.8059 38.3512
v  45.0963 -8.8059 30.1323
v  50.1083 -8.8059 20.7554
v  53.1947 -8.8059 10.5810
# 129 vertices

vn 0.2416 -0.9692 -0.0481
vn 0.2464 -0.9692 -0.0000
vn 0.2181 -0.9759 -0.0000
vn 0.2139 -0.9759 -0.0425
vn 0.2276 -0.9692 -0.0943
vn 0.2015 -0.9759 -0.0834
vn 0.2048 -0.9692 -0.1369
vn 0.1813 -0.9759 -0.1211
vn 0.1742 -0.9692 -0.1742
vn 0.1542 -0.9759 -0.1542
vn 0.1369 -0.9692 -0.2048
vn 0.1211 -0.9759 -0.1813
vn 0.0943 -0.9692 -0.2276
vn 0.0834 -0.9759 -0.2015
vn 0.0481 -0.9692 -0.2416
vn 0.0425 -0.9759 -0.2139
vn 0.0000 -0.9692 -0.2464
vn 0.0000 -0.9759 -0.2181
vn -0.0481 -0.9692 -0.2416
vn -0.0425 -0.9759 -0.2139
vn -0.0943 -0.9692 -0.2276
vn -0.0834 -0.9759 -0.2015
vn -0.1369 -0.9692 -0.2048
vn -0.1211 -0.9759 -0.1813
vn -0.1742 -0.9692 -0.1742
vn -0.1542 -0.9759 -0.1542
vn -0.2048 -0.9692 -0.1369
vn -0.1813 -0.9759 -0.1211
vn -0.2276 -0.9692 -0.0943
vn -0.2015 -0.9759 -0.0834
vn -0.2416 -0.9692 -0.0481
vn -0.2139 -0.9759 -0.0425
vn -0.2464 -0.9692 0.0000
vn -0.2181 -0.9759 0.0000
vn -0.2416 -0.9692 0.0481
vn -0.2139 -0.9759 0.0425
vn -0.2276 -0.9692 0.0943
vn -0.2015 -0.9759 0.0834
vn -0.2048 -0.9692 0.1369
vn -0.1813 -0.9759 0.1211
vn -0.1742 -0.9692 0.1742
vn -0.1542 -0.9759 0.1542
vn -0.1369 -0.9692 0.2048
vn -0.1211 -0.9759 0.1813
vn -0.0943 -0.9692 0.2276
vn -0.0834 -0.9759 0.2015
vn -0.0481 -0.9692 0.2416
vn -0.0425 -0.9759 0.2139
vn 0.0000 -0.9692 0.2464
vn 0.0000 -0.9759 0.2181
vn 0.0481 -0.9692 0.2416
vn 0.0425 -0.9759 0.2139
vn 0.0943 -0.9692 0.2276
vn 0.0834 -0.9759 0.2015
vn 0.1369 -0.9692 0.2048
vn 0.1211 -0.9759 0.1813
vn 0.1742 -0.9692 0.1742
vn 0.1542 -0.9759 0.1542
vn 0.2048 -0.9692 0.1369
vn 0.1813 -0.9759 0.1211
vn 0.2276 -0.9692 0.0943
vn 0.2015 -0.9759 0.0834
vn 0.2416 -0.9692 0.0481
vn 0.2139 -0.9759 0.0425
vn 0.0323 -0.9995 -0.0064
vn 0.0329 -0.9995 -0.0000
vn 0.0000 -1.0000 -0.0000
vn 0.0304 -0.9995 -0.0126
vn 0.0274 -0.9995 -0.0183
vn 0.0233 -0.9995 -0.0233
vn 0.0183 -0.9995 -0.0274
vn 0.0126 -0.9995 -0.0304
vn 0.0064 -0.9995 -0.0323
vn -0.0000 -0.9995 -0.0329
vn -0.0064 -0.9995 -0.0323
vn -0.0126 -0.9995 -0.0304
vn -0.0183 -0.9995 -0.0274
vn -0.0233 -0.9995 -0.0233
vn -0.0274 -0.9995 -0.0183
vn -0.0304 -0.9995 -0.0126
vn -0.0323 -0.9995 -0.0064
vn -0.0329 -0.9995 0.0000
vn -0.0323 -0.9995 0.0064
vn -0.0304 -0.9995 0.0126
vn -0.0274 -0.9995 0.0183
vn -0.0233 -0.9995 0.0233
vn -0.0183 -0.9995 0.0274
vn -0.0126 -0.9995 0.0304
vn -0.0064 -0.9995 0.0323
vn 0.0000 -0.9995 0.0329
vn 0.0064 -0.9995 0.0323
vn 0.0126 -0.9995 0.0304
vn 0.0183 -0.9995 0.0274
vn 0.0233 -0.9995 0.0233
vn 0.0274 -0.9995 0.0183
vn 0.0304 -0.9995 0.0126
vn 0.0323 -0.9995 0.0064
vn 0.1255 -0.9918 -0.0250
vn 0.1280 -0.9918 -0.0000
vn 0.1182 -0.9918 -0.0490
vn 0.1064 -0.9918 -0.0711
vn 0.0905 -0.9918 -0.0905
vn 0.0711 -0.9918 -0.1064
vn 0.0490 -0.9918 -0.1182
vn 0.0250 -0.9918 -0.1255
vn 0.0000 -0.9918 -0.1280
vn -0.0250 -0.9918 -0.1255
vn -0.0490 -0.9918 -0.1182
vn -0.0711 -0.9918 -0.1064
vn -0.0905 -0.9918 -0.0905
vn -0.1064 -0.9918 -0.0711
vn -0.1182 -0.9918 -0.0490
vn -0.1255 -0.9918 -0.0250
vn -0.1280 -0.9918 0.0000
vn -0.1255 -0.9918 0.0250
vn -0.1182 -0.9918 0.0490
vn -0.1064 -0.9918 0.0711
vn -0.0905 -0.9918 0.0905
vn -0.0711 -0.9918 0.1064
vn -0.0490 -0.9918 0.1182
vn -0.0250 -0.9918 0.1255
vn 0.0000 -0.9918 0.1280
vn 0.0250 -0.9918 0.1255
vn 0.0490 -0.9918 0.1182
vn 0.0711 -0.9918 0.1064
vn 0.0905 -0.9918 0.0905
vn 0.1064 -0.9918 0.0711
vn 0.1182 -0.9918 0.0490
vn 0.1255 -0.9918 0.0250
# 129 vertex normals

vt 0.9904 0.5975 0.0000
vt 1.0000 0.5000 0.0000
vt 0.7693 0.5000 0.0000
vt 0.7642 0.5525 0.0000
vt 0.9619 0.6913 0.0000
vt 0.7488 0.6031 0.0000
vt 0.9157 0.7778 0.0000
vt 0.7239 0.6496 0.0000
vt 0.8536 0.8536 0.0000
vt 0.6904 0.6904 0.0000
vt 0.7778 0.9157 0.0000
vt 0.6496 0.7239 0.0000
vt 0.6913 0.9619 0.0000
vt 0.6031 0.7488 0.0000
vt 0.5975 0.9904 0.0000
vt 0.5525 0.7642 0.0000
vt 0.5000 1.0000 0.0000
vt 0.5000 0.7693 0.0000
vt 0.4025 0.9904 0.0000
vt 0.4475 0.7642 0.0000
vt 0.3087 0.9619 0.0000
vt 0.3969 0.7488 0.0000
vt 0.2222 0.9157 0.0000
vt 0.3504 0.7239 0.0000
vt 0.1464 0.8536 0.0000
vt 0.3096 0.6904 0.0000
vt 0.0843 0.7778 0.0000
vt 0.2761 0.6496 0.0000
vt 0.0381 0.6913 0.0000
vt 0.2512 0.6031 0.0000
vt 0.0096 0.5975 0.0000
vt 0.2358 0.5525 0.0000
vt -0.0000 0.5000 0.0000
vt 0.2307 0.5000 0.0000
vt 0.0096 0.4025 0.0000
vt 0.2358 0.4475 0.0000
vt 0.0381 0.3087 0.0000
vt 0.2512 0.3969 0.0000
vt 0.0843 0.2222 0.0000
vt 0.2761 0.3504 0.0000
vt 0.1464 0.1464 0.0000
vt 0.3096 0.3096 0.0000
vt 0.2222 0.0843 0.0000
vt 0.3504 0.2761 0.0000
vt 0.3087 0.0381 0.0000
vt 0.3969 0.2512 0.0000
vt 0.4025 0.0096 0.0000
vt 0.4475 0.2358 0.0000
vt 0.5000 -0.0000 0.0000
vt 0.5000 0.2307 0.0000
vt 0.5975 0.0096 0.0000
vt 0.5525 0.2358 0.0000
vt 0.6913 0.0381 0.0000
vt 0.6031 0.2512 0.0000
vt 0.7778 0.0843 0.0000
vt 0.6496 0.2761 0.0000
vt 0.8536 0.1464 0.0000
vt 0.6904 0.3096 0.0000
vt 0.9157 0.2222 0.0000
vt 0.7239 0.3504 0.0000
vt 0.9619 0.3087 0.0000
vt 0.7488 0.3969 0.0000
vt 0.9904 0.4025 0.0000
vt 0.7642 0.4475 0.0000
vt 0.7256 0.5449 0.0000
vt 0.7301 0.5000 0.0000
vt 0.5000 0.5000 0.0000
vt 0.7125 0.5880 0.0000
vt 0.6913 0.6278 0.0000
vt 0.6627 0.6627 0.0000
vt 0.6278 0.6913 0.0000
vt 0.5880 0.7125 0.0000
vt 0.5449 0.7256 0.0000
vt 0.5000 0.7301 0.0000
vt 0.4551 0.7256 0.0000
vt 0.4120 0.7125 0.0000
vt 0.3722 0.6913 0.0000
vt 0.3373 0.6627 0.0000
vt 0.3087 0.6278 0.0000
vt 0.2875 0.5880 0.0000
vt 0.2744 0.5449 0.0000
vt 0.2699 0.5000 0.0000
vt 0.2744 0.4551 0.0000
vt 0.2875 0.4120 0.0000
vt 0.3087 0.3722 0.0000
vt 0.3373 0.3373 0.0000
vt 0.3722 0.3087 0.0000
vt 0.4120 0.2875 0.0000
vt 0.4551 0.2744 0.0000
vt 0.5000 0.2699 0.0000
vt 0.5449 0.2744 0.0000
vt 0.5880 0.2875 0.0000
vt 0.6278 0.3087 0.0000
vt 0.6627 0.3373 0.0000
vt 0.6913 0.3722 0.0000
vt 0.7125 0.4120 0.0000
vt 0.7256 0.4551 0.0000
vt 0.7450 0.5487 0.0000
vt 0.7498 0.5000 0.0000
vt 0.7308 0.5956 0.0000
vt 0.7077 0.6388 0.0000
vt 0.6767 0.6767 0.0000
vt 0.6388 0.7077 0.0000
vt 0.5956 0.7308 0.0000
vt 0.5487 0.7450 0.0000
vt 0.5000 0.7498 0.0000
vt 0.4513 0.7450 0.0000
vt 0.4044 0.7308 0.0000
vt 0.3612 0.7077 0.0000
vt 0.3233 0.6767 0.0000
vt 0.2923 0.6388 0.0000
vt 0.2692 0.5956 0.0000
vt 0.2550 0.5487 0.0000
vt 0.2502 0.5000 0.0000
vt 0.2550 0.4513 0.0000
vt 0.2692 0.4044 0.0000
vt 0.2923 0.3612 0.0000
vt 0.3233 0.3233 0.0000
vt 0.3612 0.2923 0.0000
vt 0.4044 0.2692 0.0000
vt 0.4513 0.2550 0.0000
vt 0.5000 0.2502 0.0000
vt 0.5487 0.2550 0.0000
vt 0.5956 0.2692 0.0000
vt 0.6388 0.2923 0.0000
vt 0.6767 0.3233 0.0000
vt 0.7077 0.3612 0.0000
vt 0.7308 0.4044 0.0000
vt 0.7450 0.4513 0.0000
# 129 texture coords

g Cylinder001
usemtl 01___Default
s 1
f 1/1/1 2/2/2 3/3/3 4/4/4 
f 5/5/5 1/1/1 4/4/4 6/6/6 
f 7/7/7 5/5/5 6/6/6 8/8/8 
f 9/9/9 7/7/7 8/8/8 10/10/10 
f 11/11/11 9/9/9 10/10/10 12/12/12 
f 13/13/13 11/11/11 12/12/12 14/14/14 
f 15/15/15 13/13/13 14/14/14 16/16/16 
f 17/17/17 15/15/15 16/16/16 18/18/18 
f 19/19/19 17/17/17 18/18/18 20/20/20 
f 21/21/21 19/19/19 20/20/20 22/22/22 
f 23/23/23 21/21/21 22/22/22 24/24/24 
f 25/25/25 23/23/23 24/24/24 26/26/26 
f 27/27/27 25/25/25 26/26/26 28/28/28 
f 29/29/29 27/27/27 28/28/28 30/30/30 
f 31/31/31 29/29/29 30/30/30 32/32/32 
f 33/33/33 31/31/31 32/32/32 34/34/34 
f 35/35/35 33/33/33 34/34/34 36/36/36 
f 37/37/37 35/35/35 36/36/36 38/38/38 
f 39/39/39 37/37/37 38/38/38 40/40/40 
f 41/41/41 39/39/39 40/40/40 42/42/42 
f 43/43/43 41/41/41 42/42/42 44/44/44 
f 45/45/45 43/43/43 44/44/44 46/46/46 
f 47/47/47 45/45/45 46/46/46 48/48/48 
f 49/49/49 47/47/47 48/48/48 50/50/50 
f 51/51/51 49/49/49 50/50/50 52/52/52 
f 53/53/53 51/51/51 52/52/52 54/54/54 
f 55/55/55 53/53/53 54/54/54 56/56/56 
f 57/57/57 55/55/55 56/56/56 58/58/58 
f 59/59/59 57/57/57 58/58/58 60/60/60 
f 61/61/61 59/59/59 60/60/60 62/62/62 
f 63/63/63 61/61/61 62/62/62 64/64/64 
f 2/2/2 63/63/63 64/64/64 3/3/3 
f 65/65/65 66/66/66 67/67/67 
f 68/68/68 65/65/65 67/67/67 
f 69/69/69 68/68/68 67/67/67 
f 70/70/70 69/69/69 67/67/67 
f 71/71/71 70/70/70 67/67/67 
f 72/72/72 71/71/71 67/67/67 
f 73/73/73 72/72/72 67/67/67 
f 74/74/74 73/73/73 67/67/67 
f 75/75/75 74/74/74 67/67/67 
f 76/76/76 75/75/75 67/67/67 
f 77/77/77 76/76/76 67/67/67 
f 78/78/78 77/77/77 67/67/67 
f 79/79/79 78/78/78 67/67/67 
f 80/80/80 79/79/79 67/67/67 
f 81/81/81 80/80/80 67/67/67 
f 82/82/82 81/81/81 67/67/67 
f 83/83/83 82/82/82 67/67/67 
f 84/84/84 83/83/83 67/67/67 
f 85/85/85 84/84/84 67/67/67 
f 86/86/86 85/85/85 67/67/67 
f 87/87/87 86/86/86 67/67/67 
f 88/88/88 87/87/87 67/67/67 
f 89/89/89 88/88/88 67/67/67 
f 90/90/90 89/89/89 67/67/67 
f 91/91/91 90/90/90 67/67/67 
f 92/92/92 91/91/91 67/67/67 
f 93/93/93 92/92/92 67/67/67 
f 94/94/94 93/93/93 67/67/67 
f 95/95/95 94/94/94 67/67/67 
f 96/96/96 95/95/95 67/67/67 
f 97/97/97 96/96/96 67/67/67 
f 66/66/66 97/97/97 67/67/67 
f 98/98/98 4/4/4 3/3/3 99/99/99 
f 100/100/100 6/6/6 4/4/4 98/98/98 
f 101/101/101 8/8/8 6/6/6 100/100/100 
f 102/102/102 10/10/10 8/8/8 101/101/101 
f 103/103/103 12/12/12 10/10/10 102/102/102 
f 104/104/104 14/14/14 12/12/12 103/103/103 
f 105/105/105 16/16/16 14/14/14 104/104/104 
f 106/106/106 18/18/18 16/16/16 105/105/105 
f 107/107/107 20/20/20 18/18/18 106/106/106 
f 108/108/108 22/22/22 20/20/20 107/107/107 
f 109/109/109 24/24/24 22/22/22 108/108/108 
f 110/110/110 26/26/26 24/24/24 109/109/109 
f 111/111/111 28/28/28 26/26/26 110/110/110 
f 112/112/112 30/30/30 28/28/28 111/111/111 
f 113/113/113 32/32/32 30/30/30 112/112/112 
f 114/114/114 34/34/34 32/32/32 113/113/113 
f 115/115/115 36/36/36 34/34/34 114/114/114 
f 116/116/116 38/38/38 36/36/36 115/115/115 
f 117/117/117 40/40/40 38/38/38 116/116/116 
f 118/118/118 42/42/42 40/40/40 117/117/117 
f 119/119/119 44/44/44 42/42/42 118/118/118 
f 120/120/120 46/46/46 44/44/44 119/119/119 
f 121/121/121 48/48/48 46/46/46 120/120/120 
f 122/122/122 50/50/50 48/48/48 121/121/121 
f 123/123/123 52/52/52 50/50/50 122/122/122 
f 124/124/124 54/54/54 52/52/52 123/123/123 
f 125/125/125 56/56/56 54/54/54 124/124/124 
f 126/126/126 58/58/58 56/56/56 125/125/125 
f 127/127/127 60/60/60 58/58/58 126/126/126 
f 128/128/128 62/62/62 60/60/60 127/127/127 
f 129/129/129 64/64/64 62/62/62 128/128/128 
f 99/99/99 3/3/3 64/64/64 129/129/129 
f 65/65/65 98/98/98 99/99/99 66/66/66 
f 68/68/68 100/100/100 98/98/98 65/65/65 
f 69/69/69 101/101/101 100/100/100 68/68/68 
f 70/70/70 102/102/102 101/101/101 69/69/69 
f 71/71/71 103/103/103 102/102/102 70/70/70 
f 72/72/72 104/104/104 103/103/103 71/71/71 
f 73/73/73 105/105/105 104/104/104 72/72/72 
f 74/74/74 106/106/106 105/105/105 73/73/73 
f 75/75/75 107/107/107 106/106/106 74/74/74 
f 76/76/76 108/108/108 107/107/107 75/75/75 
f 77/77/77 109/109/109 108/108/108 76/76/76 
f 78/78/78 110/110/110 109/109/109 77/77/77 
f 79/79/79 111/111/111 110/110/110 78/78/78 
f 80/80/80 112/112/112 111/111/111 79/79/79 
f 81/81/81 113/113/113 112/112/112 80/80/80 
f 82/82/82 114/114/114 113/113/113 81/81/81 
f 83/83/83 115/115/115 114/114/114 82/82/82 
f 84/84/84 116/116/116 115/115/115 83/83/83 
f 85/85/85 117/117/117 116/116/116 84/84/84 
f 86/86/86 118/118/118 117/117/117 85/85/85 
f 87/87/87 119/119/119 118/118/118 86/86/86 
f 88/88/88 120/120/120 119/119/119 87/87/87 
f 89/89/89 121/121/121 120/120/120 88/88/88 
f 90/90/90 122/122/122 121/121/121 89/89/89 
f 91/91/91 123/123/123 122/122/122 90/90/90 
f 92/92/92 124/124/124 123/123/123 91/91/91 
f 93/93/93 125/125/125 124/124/124 92/92/92 
f 94/94/94 126/126/126 125/125/125 93/93/93 
f 95/95/95 127/127/127 126/126/126 94/94/94 
f 96/96/96 128/128/128 127/127/127 95/95/95 
f 97/97/97 129/129/129 128/128/128 96/96/96 
f 66/66/66 99/99/99 129/129/129 97/97/97 
# 96 polygons - 32 triangles

