# 3ds Max Wavefront OBJ Exporter v0.97b - (c)2007 guruware
# File Created: 23.12.2016 15:39:36

mtllib rock.mtl

#
# object default
#

v  14.8949 7.3528 -4.8600
v  12.3559 7.2925 -11.3928
v  6.0669 9.2098 -12.7522
v  7.7547 9.4647 -6.0890
v  17.0991 -7.9840 -5.4416
v  9.0995 -10.3113 -6.2497
v  8.4414 -9.8355 -12.5947
v  14.2799 -8.4417 -10.6349
v  18.3519 -1.5758 14.0696
v  12.6920 -6.4832 16.4603
v  11.6898 -10.1068 12.6332
v  19.4613 -6.2248 7.9164
v  15.7042 -4.8197 -14.0417
v  17.9180 -2.9424 -9.7999
v  -18.5919 -8.4169 -6.3416
v  -17.9550 -5.2681 -10.1300
v  -8.6600 -5.3554 -19.5937
v  -8.8769 -9.4261 -14.8859
v  -14.0367 4.6633 -7.5095
v  -8.6889 7.4428 -2.1120
v  -10.3885 8.0246 -6.8390
v  -12.6723 5.5224 -11.4959
v  -6.5935 9.3093 -9.0265
v  -7.3512 9.4562 -2.6423
v  -0.2451 10.1141 -4.1376
v  -1.2750 9.6863 -11.9863
v  -0.5355 10.7342 1.6994
v  -6.5345 9.2092 4.1294
v  -8.1245 10.5291 8.8688
v  -1.1810 10.8658 8.0019
v  15.3611 8.6322 5.0417
v  15.8428 8.1779 -0.0075
v  7.8009 10.2217 0.5609
v  7.0032 10.6613 6.7742
v  8.2437 -10.5664 -0.1458
v  22.2076 -7.9658 -2.0691
v  23.0466 -7.2594 1.4678
v  11.2021 -10.5482 6.7256
v  -12.4018 -9.4254 3.1456
v  -2.9935 -10.3860 2.9522
v  -3.4642 -10.2374 10.1334
v  -8.8746 -9.9424 12.5420
v  0.3543 -10.1152 -12.5970
v  0.0866 -10.4667 -5.2986
v  -11.0691 -9.7702 -4.5622
v  9.7174 4.7347 19.1573
v  13.0399 -0.8884 18.2622
v  17.7814 1.0195 16.7945
v  16.9094 4.7210 14.9251
v  2.3772 -1.6984 17.1075
v  -0.5817 4.0607 18.1713
v  -10.6454 5.5204 18.8366
v  -8.5324 -0.5008 18.2492
v  -8.7522 -4.2291 20.3193
v  -7.3222 -8.3427 17.9756
v  0.8383 -8.7918 14.7259
v  2.7390 -6.5092 15.6346
v  17.3412 4.1476 -6.9345
v  16.6127 1.3569 -11.1536
v  11.0737 0.5641 -18.8173
v  10.0209 4.9258 -17.9387
v  17.5764 1.0910 5.4177
v  19.3495 4.7392 0.3154
v  18.0084 4.9568 8.3083
v  18.6338 1.3666 10.5828
v  20.5839 -1.5334 1.3212
v  18.1481 -1.8675 8.8391
v  -10.0360 7.3890 -15.1353
v  -8.9756 2.2142 -20.2748
v  -14.1707 0.3184 -12.9370
v  -0.5836 0.8457 -18.8340
v  -3.0171 8.2863 -17.7220
v  6.4248 5.9067 -17.6940
v  6.0612 0.4298 -18.7943
v  0.8057 -7.2198 -16.5488
v  9.7168 -6.5531 -15.9442
v  -17.5874 0.2302 -7.7218
v  -21.5799 -4.9506 -1.0981
v  -19.2887 2.4331 -0.4558
v  -23.0466 -3.8492 4.1690
v  -19.1891 -3.8078 12.4126
v  -18.7816 1.2170 9.1793
v  -12.8146 8.7129 7.9036
v  -9.7239 7.7094 2.8216
v  -15.4455 5.9423 -0.2880
v  -14.9943 5.4541 8.5316
v  -7.8735 9.4786 15.1687
v  -13.4657 8.5007 13.3466
v  -1.6503 9.0617 15.2210
v  6.2040 8.6560 14.7656
v  13.7819 7.9391 11.3181
v  -12.7731 -6.6320 18.8502
v  -16.2814 -7.2697 12.0877
v  -19.9067 -7.5150 3.6404
v  -22.6519 -7.8521 0.0867
v  -16.1271 4.8461 15.7698
v  -15.2903 0.2674 17.3841
v  -14.7838 -3.1013 19.8152
# 98 vertices

vn 0.5228 0.8145 -0.2515
vn 0.7082 0.6162 -0.3447
vn 0.1957 0.9382 -0.2856
vn 0.1806 0.9777 -0.1071
vn 0.6096 -0.7212 -0.3291
vn 0.1590 -0.9857 -0.0565
vn 0.1798 -0.9044 -0.3869
vn 0.5052 -0.8026 -0.3173
vn 0.9403 -0.1623 0.2991
vn 0.3108 -0.5683 0.7619
vn 0.2759 -0.8760 0.3956
vn 0.7965 -0.4309 0.4242
vn 0.7372 -0.3204 -0.5949
vn 0.9289 -0.1065 -0.3547
vn -0.5254 -0.7893 -0.3177
vn -0.8122 -0.1510 -0.5635
vn -0.2287 -0.3857 -0.8938
vn -0.2231 -0.8732 -0.4334
vn -0.6932 0.6901 -0.2081
vn -0.6078 0.7894 -0.0862
vn -0.5020 0.8608 0.0841
vn -0.7737 0.5840 -0.2457
vn -0.2710 0.9593 -0.0797
vn -0.5233 0.8491 -0.0722
vn -0.0178 0.9967 -0.0786
vn -0.0447 0.9882 -0.1463
vn -0.0549 0.9964 -0.0651
vn -0.3365 0.9214 -0.1943
vn -0.2352 0.9713 -0.0341
vn 0.0155 0.9948 0.1008
vn 0.5063 0.8582 0.0848
vn 0.5104 0.8507 -0.1255
vn 0.1422 0.9865 -0.0807
vn 0.1320 0.9871 0.0907
vn 0.0933 -0.9952 -0.0292
vn 0.7584 -0.4200 -0.4984
vn 0.9230 -0.3691 0.1085
vn 0.1911 -0.9809 0.0352
vn -0.1679 -0.9844 0.0518
vn -0.0627 -0.9980 0.0001
vn -0.0198 -0.9923 0.1220
vn -0.1511 -0.9737 0.1702
vn 0.0170 -0.9512 -0.3082
vn -0.0291 -0.9991 -0.0302
vn -0.1125 -0.9935 -0.0160
vn 0.1249 0.3931 0.9110
vn 0.1738 -0.2014 0.9640
vn 0.7619 0.0483 0.6458
vn 0.6741 0.6045 0.4245
vn -0.0184 -0.2459 0.9691
vn 0.0163 0.1978 0.9801
vn -0.1873 0.3847 0.9038
vn 0.0977 0.1679 0.9809
vn 0.1570 0.0110 0.9875
vn 0.0707 -0.7557 0.6511
vn 0.0993 -0.7795 0.6185
vn 0.0867 -0.3937 0.9152
vn 0.8180 0.4665 -0.3367
vn 0.8179 0.3339 -0.4687
vn 0.4226 0.0093 -0.9063
vn 0.4044 0.5071 -0.7611
vn 0.9278 0.3678 -0.0630
vn 0.9839 0.1646 -0.0691
vn 0.9080 0.4054 0.1056
vn 0.9940 0.0629 0.0895
vn 0.8660 0.4963 -0.0616
vn 0.9826 0.0452 0.1801
vn -0.5282 0.7158 -0.4567
vn -0.2756 0.3205 -0.9063
vn -0.8100 0.3565 -0.4655
vn 0.0461 -0.0154 -0.9988
vn -0.1564 0.6389 -0.7533
vn 0.1153 0.5556 -0.8234
vn -0.0033 -0.1056 -0.9944
vn 0.1016 -0.5672 -0.8173
vn 0.2325 -0.5718 -0.7868
vn -0.8134 0.4128 -0.4098
vn -0.9610 0.1742 -0.2150
vn -0.8119 0.5730 -0.1115
vn -0.9883 -0.0189 0.1513
vn -0.8919 -0.1399 0.4301
vn -0.8739 0.4352 0.2164
vn -0.5327 0.8409 -0.0957
vn -0.3235 0.9294 -0.1777
vn -0.5198 0.8456 -0.1212
vn -0.8221 0.5662 0.0595
vn -0.0990 0.8648 0.4923
vn -0.5285 0.8175 0.2287
vn 0.0602 0.7967 0.6014
vn 0.1045 0.8604 0.4987
vn 0.4087 0.8645 0.2926
vn -0.3576 -0.6668 0.6538
vn -0.5237 -0.8057 0.2767
vn -0.5503 -0.7961 0.2519
vn -0.9023 -0.3924 0.1785
vn -0.8893 0.2935 0.3508
vn -0.6853 0.2468 0.6852
vn -0.5151 0.0403 0.8562
# 98 vertex normals

vt 0.0583 0.5699 0.0000
vt 0.0826 0.5067 0.0000
vt 0.1529 0.4987 0.0000
vt 0.1376 0.5634 0.0000
vt 0.0998 0.3877 0.0000
vt 0.1550 0.3441 0.0000
vt 0.2063 0.3782 0.0000
vt 0.1556 0.4023 0.0000
vt 0.8707 0.1749 0.0000
vt 0.8962 0.2829 0.0000
vt 0.8545 0.3493 0.0000
vt 0.7950 0.2490 0.0000
vt 0.9057 0.6826 0.0000
vt 0.9167 0.6045 0.0000
vt 0.9492 0.5877 0.0000
vt 0.9441 0.6946 0.0000
vt 0.4892 0.0000 0.0000
vt 0.4607 0.0635 0.0000
vt 0.3368 0.0820 0.0000
vt 0.3692 0.0008 0.0000
vt 0.4857 0.2550 0.0000
vt 0.5127 0.3106 0.0000
vt 0.4816 0.3231 0.0000
vt 0.4473 0.2762 0.0000
vt 0.2701 0.5239 0.0000
vt 0.2768 0.5835 0.0000
vt 0.2154 0.5785 0.0000
vt 0.2237 0.5024 0.0000
vt 0.2208 0.6358 0.0000
vt 0.2665 0.6460 0.0000
vt 0.2885 0.6956 0.0000
vt 0.2265 0.6947 0.0000
vt 0.0600 0.6690 0.0000
vt 0.0537 0.6200 0.0000
vt 0.1407 0.6292 0.0000
vt 0.1496 0.6887 0.0000
vt 0.1155 0.2999 0.0000
vt 0.0420 0.4025 0.0000
vt 0.0114 0.3834 0.0000
vt 0.0460 0.2771 0.0000
vt 0.2261 0.1276 0.0000
vt 0.1657 0.1994 0.0000
vt 0.1162 0.1497 0.0000
vt 0.1339 0.0947 0.0000
vt 0.2584 0.3215 0.0000
vt 0.2062 0.2743 0.0000
vt 0.2737 0.1876 0.0000
vt 0.3356 0.2678 0.0000
vt 0.4229 0.6541 0.0000
vt 0.5205 0.6847 0.0000
vt 0.4775 0.7263 0.0000
vt 0.4046 0.7132 0.0000
vt 0.5396 0.5807 0.0000
vt 0.4398 0.5539 0.0000
vt 0.4227 0.4592 0.0000
vt 0.5294 0.4791 0.0000
vt 0.7441 0.8145 0.0000
vt 0.6723 0.7875 0.0000
vt 0.6838 0.7120 0.0000
vt 0.7317 0.7072 0.0000
vt 0.0163 0.5363 0.0000
vt 0.0066 0.4823 0.0000
vt 0.0544 0.4025 0.0000
vt 0.0909 0.4319 0.0000
vt 0.8187 0.1375 0.0000
vt 0.7861 0.0702 0.0000
vt 0.8571 0.0701 0.0000
vt 0.8552 0.1259 0.0000
vt 0.7587 0.1680 0.0000
vt 0.8291 0.1826 0.0000
vt 0.7208 0.2512 0.0000
vt 0.6940 0.2682 0.0000
vt 0.4081 0.3181 0.0000
vt 0.3485 0.2255 0.0000
vt 0.4310 0.1768 0.0000
vt 0.7589 0.4881 0.0000
vt 0.7478 0.3611 0.0000
vt 0.8347 0.4016 0.0000
vt 0.8217 0.4944 0.0000
vt 0.7665 0.6400 0.0000
vt 0.8534 0.6288 0.0000
vt 0.8441 0.7006 0.0000
vt 0.7667 0.7072 0.0000
vt 0.4911 0.1663 0.0000
vt 0.5550 0.0575 0.0000
vt 0.5654 0.2000 0.0000
vt 0.6089 0.0722 0.0000
vt 0.6612 0.0716 0.0000
vt 0.6424 0.1700 0.0000
vt 0.6197 0.3211 0.0000
vt 0.5600 0.3103 0.0000
vt 0.5564 0.2715 0.0000
vt 0.6283 0.2559 0.0000
vt 0.9071 0.1336 0.0000
vt 0.9344 0.1876 0.0000
vt 0.6226 0.5818 0.0000
vt 0.6173 0.6784 0.0000
vt 0.6629 0.5621 0.0000
vt 0.6723 0.6611 0.0000
vt 0.8696 0.4909 0.0000
vt 0.9396 0.5063 0.0000
vt 0.7441 0.8212 0.0000
vt 0.7521 0.7072 0.0000
vt 0.7914 0.7117 0.0000
vt 0.7916 0.8662 0.0000
vt 1.0000 0.6065 0.0000
vt 0.9999 0.7068 0.0000
vt 0.6723 0.5967 0.0000
vt 0.6778 0.4598 0.0000
vt 0.6749 0.6876 0.0000
vt 0.3369 0.7859 0.0000
vt 0.3845 0.7263 0.0000
vt 0.3877 0.8015 0.0000
vt 0.3368 0.8336 0.0000
vt 0.4481 0.3543 0.0000
vt 0.5062 0.3510 0.0000
vt 0.5595 0.3420 0.0000
vt 0.6100 0.3611 0.0000
vt 0.2786 0.7492 0.0000
vt 0.3209 0.6737 0.0000
vt 0.3247 0.7229 0.0000
vt 0.2184 0.7526 0.0000
vt 0.1432 0.7525 0.0000
vt 0.0693 0.7227 0.0000
vt 0.8083 0.3611 0.0000
vt 0.0000 0.2413 0.0000
vt 0.0562 0.1459 0.0000
vt 0.0856 0.0653 0.0000
vt 0.1163 0.0148 0.0000
vt 0.1879 0.0352 0.0000
vt 0.2730 0.0641 0.0000
vt 0.3165 0.0684 0.0000
vt 0.3368 0.1404 0.0000
vt 0.3368 0.6749 0.0000
vt 0.3401 0.6102 0.0000
vt 0.3400 0.5363 0.0000
vt 0.3368 0.4768 0.0000
vt 0.3532 0.4197 0.0000
vt 0.4295 0.4003 0.0000
vt 0.5177 0.4127 0.0000
vt 0.6042 0.4822 0.0000
vt 0.5865 0.4235 0.0000
vt 0.6465 0.4411 0.0000
vt 0.6710 0.4914 0.0000
vt 0.0000 0.6084 0.0000
vt 0.6941 0.1437 0.0000
vt 0.7365 0.0923 0.0000
vt 0.0123 0.6830 0.0000
vt 0.0198 0.7426 0.0000
vt 0.9139 0.0770 0.0000
vt 0.2912 0.4545 0.0000
vt 0.2322 0.4405 0.0000
vt 0.6853 0.3887 0.0000
vt 0.1301 0.4362 0.0000
vt 0.8671 0.4173 0.0000
vt 0.5639 0.0001 0.0000
vt 0.5821 0.0074 0.0000
vt 0.2933 0.0252 0.0000
vt 0.2079 0.0000 0.0000
vt 0.5795 0.3653 0.0000
vt 0.6396 0.3929 0.0000
vt 0.4772 0.3611 0.0000
vt 0.6940 0.1502 0.0000
vt 0.6938 0.2371 0.0000
vt 0.6686 0.3119 0.0000
# 165 texture coords

g default
usemtl 02___Default
s 1
f 1/1/1 2/2/2 3/3/3 4/4/4 
f 5/5/5 6/6/6 7/7/7 8/8/8 
f 9/9/9 10/10/10 11/11/11 12/12/12 
f 8/13/8 13/14/13 14/15/14 5/16/5 
f 15/17/15 16/18/16 17/19/17 18/20/18 
f 19/21/19 20/22/20 21/23/21 22/24/22 
f 23/25/23 24/26/24 25/27/25 26/28/26 
f 27/29/27 28/30/28 29/31/29 30/32/30 
f 31/33/31 32/34/32 33/35/33 34/36/34 
f 35/37/35 36/38/36 37/39/37 38/40/38 
f 39/41/39 40/42/40 41/43/41 42/44/42 
f 43/45/43 44/46/44 45/47/45 18/48/18 
f 46/49/46 47/50/47 48/51/48 49/52/49 
f 50/53/50 51/54/51 52/55/52 53/56/53 
f 54/57/54 55/58/55 56/59/56 57/60/57 
f 58/61/58 59/62/59 60/63/60 61/64/61 
f 62/65/62 63/66/63 64/67/64 65/68/65 
f 66/69/66 67/70/67 37/71/37 36/72/36 
f 22/24/22 68/73/68 69/74/69 70/75/70 
f 71/76/71 72/77/72 73/78/73 74/79/74 
f 75/80/75 76/81/76 7/82/7 43/83/43 
f 77/84/77 70/75/70 16/18/16 78/85/78 
f 79/86/79 80/87/80 81/88/81 82/89/82 
f 83/90/83 84/91/84 85/92/85 86/93/86 
f 4/4/4 3/3/3 26/28/26 25/27/25 
f 4/4/4 25/27/25 27/29/27 33/35/33 
f 4/4/4 33/35/33 32/34/32 1/1/1 
f 5/5/5 36/38/36 35/37/35 6/6/6 
f 44/46/44 6/6/6 35/37/35 40/42/40 
f 44/46/44 43/45/43 7/7/7 6/6/6 
f 10/10/10 9/9/9 48/94/48 47/95/47 
f 57/96/57 10/97/10 47/50/47 50/53/50 
f 57/96/57 56/98/56 11/99/11 10/97/10 
f 14/15/14 13/14/13 60/100/60 59/101/59 
f 66/102/66 14/103/14 59/104/59 62/105/62 
f 66/106/66 36/107/36 5/16/5 14/15/14 
f 69/74/69 17/19/17 16/18/16 70/75/70 
f 75/80/75 17/108/17 69/109/69 71/76/71 
f 75/80/75 43/83/43 18/110/18 17/108/17 
f 70/75/70 77/84/77 19/21/19 22/24/22 
f 79/86/79 85/92/85 19/21/19 77/84/77 
f 20/111/20 19/112/19 85/113/85 84/114/84 
f 23/115/23 21/23/21 20/22/20 24/116/24 
f 84/91/84 28/117/28 24/116/24 20/22/20 
f 27/29/27 25/27/25 24/26/24 28/30/28 
f 84/91/84 83/90/83 29/118/29 28/117/28 
f 87/119/87 29/31/29 83/120/83 88/121/88 
f 30/32/30 29/31/29 87/119/87 89/122/89 
f 33/35/33 27/29/27 30/32/30 34/36/34 
f 30/32/30 89/122/89 90/123/90 34/36/34 
f 91/124/91 31/33/31 34/36/34 90/123/90 
f 38/125/38 37/71/37 12/12/12 11/11/11 
f 11/126/11 56/127/56 41/43/41 38/40/38 
f 40/42/40 35/37/35 38/40/38 41/43/41 
f 41/43/41 56/127/56 55/128/55 42/44/42 
f 92/129/92 93/130/93 42/44/42 55/128/55 
f 93/130/93 94/131/94 39/41/39 42/44/42 
f 39/41/39 45/47/45 44/46/44 40/42/40 
f 39/41/39 94/131/94 95/132/95 45/47/45 
f 15/133/15 18/48/18 45/47/45 95/132/95 
f 46/49/46 49/52/49 91/134/91 90/135/90 
f 90/135/90 89/136/89 51/54/51 46/49/46 
f 51/54/51 50/53/50 47/50/47 46/49/46 
f 51/54/51 89/136/89 87/137/87 52/55/52 
f 87/137/87 88/138/88 96/139/96 52/55/52 
f 52/55/52 96/139/96 97/140/97 53/56/53 
f 53/56/53 54/141/54 57/96/57 50/53/50 
f 98/142/98 54/141/54 53/56/53 97/140/97 
f 54/141/54 98/142/98 92/143/92 55/144/55 
f 61/64/61 2/2/2 1/1/1 58/61/58 
f 58/61/58 1/1/1 32/34/32 63/145/63 
f 59/146/59 58/147/58 63/66/63 62/65/62 
f 63/145/63 32/34/32 31/33/31 64/148/64 
f 91/124/91 49/149/49 64/148/64 31/33/31 
f 49/150/49 48/94/48 65/68/65 64/67/64 
f 65/68/65 67/70/67 66/69/66 62/65/62 
f 48/94/48 9/9/9 67/70/67 65/68/65 
f 67/70/67 9/9/9 12/12/12 37/71/37 
f 23/115/23 68/73/68 22/24/22 21/23/21 
f 68/151/68 23/25/23 26/28/26 72/152/72 
f 71/76/71 69/109/69 68/153/68 72/77/72 
f 72/152/72 26/28/26 3/3/3 73/154/73 
f 61/64/61 73/154/73 3/3/3 2/2/2 
f 74/79/74 73/78/73 61/155/61 60/100/60 
f 76/81/76 75/80/75 71/76/71 74/79/74 
f 60/100/60 13/14/13 76/81/76 74/79/74 
f 13/14/13 8/13/8 7/82/7 76/81/76 
f 16/18/16 15/17/15 95/156/95 78/85/78 
f 94/157/94 80/87/80 78/85/78 95/156/95 
f 80/87/80 79/86/79 77/84/77 78/85/78 
f 80/158/80 94/131/94 93/130/93 81/159/81 
f 92/143/92 98/142/98 81/160/81 93/161/93 
f 98/142/98 97/140/97 82/162/82 81/160/81 
f 82/89/82 86/93/86 85/92/85 79/86/79 
f 86/93/86 82/89/82 97/163/97 96/164/96 
f 83/90/83 86/93/86 96/164/96 88/165/88 
# 96 polygons

